<svg width="24" height="24" viewBox="0 0 24 24" fill="none" xmlns="http://www.w3.org/2000/svg">
  <g stroke="#b45309" stroke-width="1.5" stroke-linecap="round" stroke-linejoin="round">
    <g transform="rotate(0 12 12)"><path d="M12 8 C14 5 15 3 13.5 1.5 M12.5 5 C15.5 5 16.5 3 17.5 1.5 M12 8 C10 6 9.5 7 7.5 4.5"/></g>
    <g transform="rotate(45 12 12)"><path d="M12 8 C14 5 15 3 13.5 1.5 M12.5 5 C15.5 5 16.5 3 17.5 1.5 M12 8 C10 6 9.5 7 7.5 4.5"/></g>
    <g transform="rotate(90 12 12)"><path d="M12 8 C14 5 15 3 13.5 1.5 M12.5 5 C15.5 5 16.5 3 17.5 1.5 M12 8 C10 6 9.5 7 7.5 4.5"/></g>
    <g transform="rotate(135 12 12)"><path d="M12 8 C14 5 15 3 13.5 1.5 M12.5 5 C15.5 5 16.5 3 17.5 1.5 M12 8 C10 6 9.5 7 7.5 4.5"/></g>
    <g transform="rotate(180 12 12)"><path d="M12 8 C14 5 15 3 13.5 1.5 M12.5 5 C15.5 5 16.5 3 17.5 1.5 M12 8 C10 6 9.5 7 7.5 4.5"/></g>
    <g transform="rotate(225 12 12)"><path d="M12 8 C14 5 15 3 13.5 1.5 M12.5 5 C15.5 5 16.5 3 17.5 1.5 M12 8 C10 6 9.5 7 7.5 4.5"/></g>
    <g transform="rotate(270 12 12)"><path d="M12 8 C14 5 15 3 13.5 1.5 M12.5 5 C15.5 5 16.5 3 17.5 1.5 M12 8 C10 6 9.5 7 7.5 4.5"/></g>
    <g transform="rotate(315 12 12)"><path d="M12 8 C14 5 15 3 13.5 1.5 M12.5 5 C15.5 5 16.5 3 17.5 1.5 M12 8 C10 6 9.5 7 7.5 4.5"/></g>
  </g>
</svg>
